<?xml version="1.0" encoding="utf-8"?>
<!-- Generator: Adobe Illustrator 24.0.1, SVG Export Plug-In . SVG Version: 6.00 Build 0)  -->
<svg version="1.1" id="Layer_1" xmlns="http://www.w3.org/2000/svg" xmlns:xlink="http://www.w3.org/1999/xlink" x="0px" y="0px"
	 viewBox="0 0 370 370" style="enable-background:new 0 0 370 370;" xml:space="preserve">
<style type="text/css">
	.st0{fill:#714B67;}
	.st1{fill:#017E84;}
	.st2{fill:none;}
	.st3{fill:none;stroke:#000000;stroke-width:5;stroke-miterlimit:10;}
	.st4{fill:none;stroke:#017E84;stroke-miterlimit:10;}
</style>
<g>
	<g>
		<path class="st0" d="M-426.9-1900.4c3.9,0,7.1,3.2,7.1,7.1v13.9v13.1l12.9,2.6c22.2,4.5,42.3,16.6,56.9,34.2
			c14.7,17.8,22.8,40.3,22.8,63.4v13.6c0,37.9,13.9,74.4,39.1,102.9l0,0l0,0l5.4,6c1.9,2.1,2.3,5,1.2,7.6c-1.2,2.6-3.7,4.2-6.5,4.2
			h-277.5c-2.8,0-5.3-1.6-6.4-4.1c-1.2-2.6-0.7-5.6,1.1-7.7l5.3-6l0,0l0,0c25.2-28.4,39.1-65,39.1-102.9v-13.6
			c0-23.1,8.1-45.6,22.8-63.4c14.5-17.6,34.7-29.7,56.9-34.2l12.9-2.6v-13.1v-13.9C-434-1897.2-430.8-1900.4-426.9-1900.4
			 M-426.9-1916.5c-12.8,0-23.1,10.3-23.1,23.1v13.9c-52.8,10.7-92.5,57.4-92.5,113.3v13.6c0,34-12.5,66.8-35,92.2l-5.3,6
			c-6.1,6.8-7.5,16.5-3.8,24.9c3.7,8.3,12,13.7,21.1,13.7h277.5c9.1,0,17.3-5.3,21.1-13.7c3.8-8.3,2.2-18.1-3.8-24.9l-5.3-6
			c-22.5-25.4-35-58.2-35-92.2v-13.6c0-55.9-39.7-102.6-92.5-113.3v-13.9C-403.8-1906.1-414.1-1916.5-426.9-1916.5L-426.9-1916.5z"
			/>
		<path class="st1" d="M-401.3-1576.7c-1.2,1.9-2.6,3.7-4.3,5.3c-5.7,5.7-13.3,8.8-21.4,8.8s-15.7-3.1-21.4-8.8
			c-1.6-1.6-3.1-3.4-4.3-5.3h25.6H-401.3 M-380.7-1592.7h-46.3h-46.2c0,12.3,4.8,24.1,13.5,32.7c8.7,8.7,20.5,13.5,32.7,13.5
			c12.3,0,24.1-4.8,32.7-13.5C-385.5-1568.6-380.7-1580.4-380.7-1592.7L-380.7-1592.7z"/>
	</g>
	<rect x="-611.9" y="-1916.5" class="st2" width="370" height="370"/>
</g>
<g>
	<g>
		<path class="st0" d="M521-1834.1c14,0,25.4,11.8,25.4,26.3v152.8c0,14.5-11.4,26.3-25.4,26.3H225c-14,0-25.4-11.8-25.4-26.3
			v-152.8c0-14.5,11.4-26.3,25.4-26.3H521 M521-1846.1H225c-20.4,0-37,17.1-37,38.2v152.8c0,21.1,16.6,38.2,37,38.2h296
			c20.4,0,37-17.1,37-38.2v-152.8C558-1828.9,541.4-1846.1,521-1846.1L521-1846.1z"/>
		<path class="st3" d="M382.2-1655h-148c-5.1,0-9.3-4.3-9.3-9.6s4.2-9.6,9.3-9.6h148c5.1,0,9.3,4.3,9.3,9.6S387.3-1655,382.2-1655z"
			/>
		<ellipse class="st3" cx="234.2" cy="-1702.8" rx="9.3" ry="9.6"/>
		<ellipse class="st3" cx="271.2" cy="-1702.8" rx="9.3" ry="9.6"/>
		<ellipse class="st3" cx="308.2" cy="-1702.8" rx="9.3" ry="9.6"/>
		<ellipse class="st3" cx="345.2" cy="-1702.8" rx="9.3" ry="9.6"/>
		<ellipse class="st3" cx="382.2" cy="-1702.8" rx="9.3" ry="9.6"/>
		<g>
			<path class="st0" d="M373-1730H243.5c-11,0-19.9-9.2-19.9-20.6v-38.2c0-11.4,8.9-20.6,19.9-20.6H373c11,0,19.9,9.2,19.9,20.6
				v38.2C392.9-1739.2,383.9-1730,373-1730z M243.5-1806.4c-9.4,0-17.1,7.9-17.1,17.6v38.2c0,9.7,7.7,17.6,17.1,17.6H373
				c9.4,0,17.1-7.9,17.1-17.6v-38.2c0-9.7-7.7-17.6-17.1-17.6H243.5z"/>
		</g>
		<path class="st3" d="M511.7-1655h-92.5c-5.1,0-9.3-4.3-9.3-9.6s4.2-9.6,9.3-9.6h92.5c5.1,0,9.3,4.3,9.3,9.6S516.8-1655,511.7-1655
			z"/>
		<g>
			<path class="st0" d="M382.2-1653.5h-148c-5.9,0-10.7-5-10.7-11s4.8-11,10.7-11h148c5.9,0,10.7,5,10.7,11
				S388.1-1653.5,382.2-1653.5z M234.2-1672.7c-4.3,0-7.8,3.6-7.8,8.1s3.5,8.1,7.8,8.1h148c4.3,0,7.8-3.6,7.8-8.1s-3.5-8.1-7.8-8.1
				H234.2z"/>
		</g>
		<g>
			<path class="st0" d="M511.7-1653.5h-92.5c-5.9,0-10.7-5-10.7-11s4.8-11,10.7-11h92.5c5.9,0,10.7,5,10.7,11
				S517.6-1653.5,511.7-1653.5z M419.2-1672.7c-4.3,0-7.8,3.6-7.8,8.1s3.5,8.1,7.8,8.1h92.5c4.3,0,7.8-3.6,7.8-8.1s-3.5-8.1-7.8-8.1
				H419.2z"/>
		</g>
		<g>
			<path class="st0" d="M234.2-1691.8c-5.9,0-10.7-5-10.7-11c0-6.1,4.8-11,10.7-11s10.7,5,10.7,11
				C244.9-1696.7,240.1-1691.8,234.2-1691.8z M234.2-1710.9c-4.3,0-7.8,3.6-7.8,8.1c0,4.4,3.5,8.1,7.8,8.1c4.3,0,7.8-3.6,7.8-8.1
				C242-1707.2,238.5-1710.9,234.2-1710.9z"/>
		</g>
		<g>
			<path class="st0" d="M271.2-1691.8c-5.9,0-10.7-5-10.7-11c0-6.1,4.8-11,10.7-11s10.7,5,10.7,11
				C281.9-1696.7,277.1-1691.8,271.2-1691.8z M271.2-1710.9c-4.3,0-7.8,3.6-7.8,8.1c0,4.4,3.5,8.1,7.8,8.1c4.3,0,7.8-3.6,7.8-8.1
				C279-1707.2,275.5-1710.9,271.2-1710.9z"/>
		</g>
		<g>
			<path class="st0" d="M308.2-1691.8c-5.9,0-10.7-5-10.7-11c0-6.1,4.8-11,10.7-11s10.7,5,10.7,11
				C318.9-1696.7,314.1-1691.8,308.2-1691.8z M308.2-1710.9c-4.3,0-7.8,3.6-7.8,8.1c0,4.4,3.5,8.1,7.8,8.1c4.3,0,7.8-3.6,7.8-8.1
				C316-1707.2,312.5-1710.9,308.2-1710.9z"/>
		</g>
		<g>
			<path class="st0" d="M345.2-1691.8c-5.9,0-10.7-5-10.7-11c0-6.1,4.8-11,10.7-11s10.7,5,10.7,11
				C355.9-1696.7,351.1-1691.8,345.2-1691.8z M345.2-1710.9c-4.3,0-7.8,3.6-7.8,8.1c0,4.4,3.5,8.1,7.8,8.1c4.3,0,7.8-3.6,7.8-8.1
				C353-1707.2,349.5-1710.9,345.2-1710.9z"/>
		</g>
		<g>
			<path class="st0" d="M382.2-1691.8c-5.9,0-10.7-5-10.7-11c0-6.1,4.8-11,10.7-11s10.7,5,10.7,11
				C392.9-1696.7,388.1-1691.8,382.2-1691.8z M382.2-1710.9c-4.3,0-7.8,3.6-7.8,8.1c0,4.4,3.5,8.1,7.8,8.1c4.3,0,7.8-3.6,7.8-8.1
				C390-1707.2,386.5-1710.9,382.2-1710.9z"/>
		</g>
		<g>
			<path class="st1" d="M491-1772.5l-0.9-1.5l-8.6,9.4c1.3,3.3,2,6.8,1.9,10.3c0.1,4.2-0.9,8.4-2.8,12.2c-1.8,3.3-4.5,6-7.7,7.9
				c-6.9,4.1-15.5,4.1-22.4,0c-3.2-1.9-5.9-4.6-7.7-7.9c-1.9-3.8-2.9-8-2.8-12.2c-0.1-4.3,0.9-8.5,2.8-12.3c1.8-3.3,4.5-6.1,7.7-7.9
				c3.4-2.1,7.3-3.1,11.2-3c3.5-0.1,7,0.7,10.1,2.4l7.7-8.8l-0.5-0.9c-5.3-3-11.2-4.6-17.3-4.4c-6.1-0.2-12.1,1.4-17.4,4.4
				c-4.8,3-8.7,7.2-11.4,12.3c-2.9,5.6-4.4,11.9-4.3,18.2c-0.1,6.3,1.4,12.5,4.3,18c2.8,5.2,6.9,9.4,11.9,12.4
				c5.3,3.1,11.3,4.6,17.4,4.4c5.9,0,11.6-1.5,16.7-4.4c5-2.9,9.1-7.2,11.8-12.4c2.9-5.5,4.4-11.7,4.2-18
				C495.2-1760.5,493.8-1766.8,491-1772.5z M479.3-1768.6l8.1-9c-1.2-1.5-2.5-2.9-4-4l-7.7,8.6
				C477.1-1771.7,478.3-1770.3,479.3-1768.6z"/>
			<path class="st1" d="M459.5-1766.3c1.3-0.4,2.7-0.6,4.1-0.5c3.8,0.2,7.6-1.3,10.1-4.3l11.5-12.7c2.7-2.9,4-6.8,3.5-10.8
				c-0.2-1.5-0.2-3,0-4.4c0.9-4.4,4.2-7.9,8.4-9c6.1-2,12.7,1.4,14.7,7.8c2,6.3-1.4,13.1-7.5,15.2c-0.6,0.2-1.2,0.4-1.9,0.5
				c-0.9,0.2-1.9,0.2-2.8,0c-3.8,0-7.4,1.8-9.9,4.8l-11.8,12.7c-2.7,3-4,7.1-3.5,11.1c0.2,1.4,0.2,2.8,0,4.1c-1,4.3-4.2,7.8-8.4,8.9
				c-6.2,1.7-12.6-2.1-14.3-8.6c-0.4-1.8-0.5-3.6-0.2-5.4C452.3-1761.3,455.3-1765,459.5-1766.3z"/>
			<ellipse class="st1" cx="466.8" cy="-1806.4" rx="8.3" ry="8.6"/>
		</g>
	</g>
	<rect x="188" y="-1916.5" class="st2" width="370" height="370"/>
</g>
<g>
	<g>
		<g>
			<path class="st1" d="M1230.5-1744.5l-0.9-3.3l-21.3,12.3c0.7,6.7,0,13.4-2,19.8c-2.2,7.8-6.2,14.8-11.8,20.6
				c-5.2,5-11.7,8.5-18.7,10.1c-15.3,3.6-31.3-1.2-42-12.6c-5-5.2-8.5-11.7-10.1-18.7c-1.5-7.9-1.1-16.1,1.3-23.8
				c2.2-7.8,6.3-14.9,12-20.7c5.2-5,11.7-8.5,18.7-10.1c7.5-1.9,15.3-1.6,22.7,0.8c6.6,1.8,12.7,5.2,17.6,10l19.2-11.7l-0.5-1.9
				c-8.2-8.5-18.6-14.6-30-17.8c-11.3-3.7-23.5-4.3-35.1-1.7c-10.6,2.7-20.3,8.2-28,15.9c-8.5,8.5-14.7,19.1-18,30.7
				c-3.6,11.4-4.2,23.4-1.7,35.1c2.5,10.9,7.9,21,15.6,29.1c8.3,8.5,18.8,14.7,30.3,17.8c11,3.3,22.6,3.8,33.8,1.3
				c10.9-2.5,20.9-8,28.9-15.8c8.4-8.4,14.5-18.8,17.7-30.3C1231.9-1720.5,1232.8-1732.7,1230.5-1744.5z M1206.6-1744.1l20.1-11.7
				c-1.4-3.4-3.2-6.6-5.3-9.6l-19.1,11.4C1204.2-1751,1205.6-1747.6,1206.6-1744.1z"/>
			<path class="st1" d="M1168.2-1751.1c2.7,0,5.4,0.5,7.9,1.4c7.1,2.6,14.9,1.8,21.3-2.1l28.5-16.6c6.6-3.7,11.2-10.2,12.3-17.6
				c0.4-2.8,1.2-5.5,2.4-8.1c4.1-7.5,12.2-12,20.7-11.5c12.6-0.3,23.1,9.7,23.3,22.3s-9.7,23.1-22.3,23.3c-1.3,0-2.5-0.1-3.8-0.2
				c-1.8-0.2-3.6-0.8-5.3-1.6c-7.2-2.1-14.9-0.9-21.2,3.2l-29.1,16.4c-6.7,3.8-11.3,10.6-12.5,18.2c-0.3,2.6-1.1,5.1-2.2,7.5
				c-4.2,7.4-12.1,11.8-20.5,11.4c-12.6-0.4-22.5-11-22.1-23.6c0.1-3.4,1-6.8,2.6-9.9C1151.9-1746.1,1159.7-1751,1168.2-1751.1z"/>
			<circle class="st1" cx="1203.6" cy="-1819.7" r="16.2"/>
		</g>
		<path class="st0" d="M1339-1694l-26.1-23.8c0.4-4.6,0.7-9.2,0.7-13.7c0-4.5-0.2-9.1-0.7-13.7l26.1-23.7c6.1-5.4,9-13.2,8.4-20.8
			l0.7-0.7l-2.1-5.6c-3.1-8.4-6.9-16.7-11.4-24.8l-3.4-5.8c-4.7-7.8-10.1-15.4-16-22.6c-6.5-7.8-17-10.8-26.9-7.6l-33.6,10.7
			c-7.5-5.3-15.4-9.9-23.7-13.7l-7.5-34.5c-2.2-10.2-10.2-17.9-20.1-19.5c-20.3-3.4-41.7-3.4-61.4,0.1c-10,1.7-17.9,9.3-20.1,19.5
			l-7.5,34.5c-8.3,3.8-16.3,8.4-23.7,13.7l-33.6-10.7c-10-3.2-20.5-0.2-26.9,7.6c-5.9,7.2-11.3,14.7-16,22.6l-3.3,5.7l-0.1,0.2
			c-4.5,8.1-8.3,16.5-11.4,24.8c-3.5,9.5-0.8,20.2,6.9,27.1l26.1,23.8c-0.4,4.6-0.7,9.2-0.7,13.7c0,4.5,0.2,9.1,0.7,13.8l-26.1,23.7
			c-7.7,6.9-10.4,17.6-6.9,27.2c3.1,8.4,6.9,16.7,11.4,24.8l3.3,5.7l0.1,0.1c4.7,7.8,10.1,15.4,16,22.6c6.5,7.8,17,10.8,26.9,7.6
			l33.5-10.7c7.5,5.3,15.4,9.9,23.7,13.7l7.5,34.5c2.2,10.2,10.2,17.9,20.1,19.5c10.1,1.7,20.4,2.5,30.7,2.5
			c10.3,0,20.6-0.9,30.7-2.5c10-1.6,17.9-9.3,20.2-19.5l7.5-34.5c8.3-3.8,16.3-8.4,23.7-13.7l33.6,10.7c10,3.2,20.5,0.2,26.9-7.6
			c5.9-7.2,11.3-14.7,16-22.6l3.3-5.7l0.1-0.2c4.5-8.1,8.3-16.4,11.4-24.8C1349.5-1676.4,1346.7-1687,1339-1694z M1328.3-1673.4
			c-2.8,7.5-6.2,14.9-10.2,22.1l-3.1,5.4c-4.2,7-9,13.8-14.3,20.2c-1.5,1.8-4.1,2.5-6.7,1.7l-42.9-13.6l-3.9,3
			c-8.6,6.6-18.1,12.1-28,16.2l-4.6,1.9l-9.6,44c-0.6,2.6-2.5,4.5-4.8,4.9c-18.1,3-37.1,3-55.2,0c-2.3-0.4-4.2-2.3-4.8-4.9l-9.6-44
			l-4.6-1.9c-10-4.1-19.4-9.5-28-16.2l-3.9-3l-42.8,13.7c-2.5,0.8-5.2,0.1-6.7-1.7c-5.3-6.4-10.1-13.2-14.3-20.2l-3.1-5.4
			c-4-7.2-7.4-14.7-10.2-22.1c-0.8-2.3-0.1-4.9,1.9-6.6l33.3-30.3l-0.6-4.9c-0.7-5.5-1.1-11-1.1-16.3c0-5.3,0.4-10.8,1.1-16.2
			l0.6-4.9l-33.4-30.4c-2-1.8-2.7-4.3-1.8-6.6c2.8-7.5,6.2-14.9,10.2-22.1l3.1-5.4c4.2-7,9-13.8,14.3-20.2c1.5-1.8,4.1-2.5,6.7-1.7
			l42.9,13.6l3.9-3c8.6-6.6,18.1-12.1,28-16.2l4.6-1.9l9.6-44c0.6-2.6,2.5-4.5,4.8-4.9l0.1,0c17.7-3.1,36.9-3.1,55.2-0.1
			c2.3,0.4,4.2,2.3,4.8,4.9l9.6,44l4.6,1.9c10,4.1,19.4,9.5,28,16.2l3.9,3l42.9-13.6c2.5-0.8,5.2-0.1,6.7,1.7
			c5.3,6.4,10.1,13.2,14.3,20.2l3.1,5.4c3.2,5.8,6,11.7,8.4,17.6l1.7,4.6c0.8,2.3,0.1,4.9-1.9,6.6l-33.4,30.3l0.6,4.9
			c0.7,5.4,1.1,10.9,1.1,16.2c0,5.3-0.4,10.8-1.1,16.2l-0.6,4.9l33.4,30.3l0,0C1328.4-1678.2,1329.1-1675.6,1328.3-1673.4z"/>
	</g>
	<rect x="987.8" y="-1916.5" class="st2" width="370" height="370"/>
</g>
<g>
	<g>
		<path class="st4" d="M2157.7-1755.1"/>
		<path class="st1" d="M1842.3-1886.3c-5.9-4.6-14.2-4-19.5,1.2l-24.7,24.7c-5.2,5.2-5.8,13.6-1.3,19.5l49.4,64.2
			c2.8,3.6,7.2,5.8,11.7,5.8h33.4l67.2,67.2c-9.1,17.9-6.2,40.3,8.8,55.3l69.1,69.1c7.7,7.7,20.2,7.7,27.9,0l39.5-39.5
			c7.7-7.7,7.7-20.2,0-27.9l-69.1-69.1c-14.9-14.9-37.4-17.9-55.3-8.8l-67.2-67.2v-33.4c0-4.6-2.2-8.9-5.8-11.7L1842.3-1886.3z"/>
		<g>
			<g>
				<path class="st0" d="M1835.7-1567.3c-26.5,0-48.1-21.6-48.1-48.1c0-12.6,5.1-25,14.1-34l96-96l44.9,44.9l-0.9,3.4
					c-3.1,12.2-2.4,24.8,2,36.5l1.4,3.7l-75.5,75.5C1860.8-1572.5,1848.4-1567.3,1835.7-1567.3z M1897.8-1728l-87.3,87.3
					c-6.7,6.7-10.5,15.9-10.5,25.3c0,19.7,16,35.7,35.7,35.7c9.4,0,18.6-3.8,25.3-10.5l70-70c-3.7-11.9-4.4-24.4-1.9-36.6
					L1897.8-1728z M1843.2-1601.9c-11.6,0-21-9.4-21-21s9.4-21,21-21c11.6,0,21,9.4,21,21S1854.8-1601.9,1843.2-1601.9z
					 M1843.2-1631.5c-4.8,0-8.6,3.9-8.6,8.6s3.9,8.6,8.6,8.6s8.6-3.9,8.6-8.6S1848-1631.5,1843.2-1631.5z"/>
			</g>
			<g>
				<path class="st0" d="M2057.2-1712.6l-12.7-12.7c-15.2-15.2-37.5-21.3-58.3-16.1l-3.4,0.9l-56.9-56.9v-3c0-52.4,42.6-95,95-95
					c6.8,0,13.6,0.7,20.2,2.1c5.3,1.1,9.3,4.9,10.8,10c1.6,5.4,0,11.3-4,15.4l-39.4,39.4c-0.7,0.7-1.1,1.6-1.1,2.6v35.4
					c0,2,1.7,3.7,3.7,3.7l35.4,0.1c1,0,1.9-0.4,2.6-1.1l39.4-39.4c4.1-4.1,10-5.6,15.4-4c5.1,1.5,8.8,5.6,10,10.8l0,0
					c1.4,6.5,2.1,13.3,2.1,20.1c0,18.4-5.3,36.3-15.3,51.6c-9.7,15-23.4,26.9-39.5,34.5L2057.2-1712.6z M2001-1755.6
					c19.3,0,38.3,7.6,52.2,21.5l6.5,6.5c26.8-14.3,43.8-42.5,43.8-73c0-5.9-0.6-11.8-1.8-17.5v0c-0.1-0.5-0.4-1.3-1.4-1.6
					c-0.8-0.2-2.1-0.1-3.1,0.9l-39.4,39.4c-3,3-7.1,4.7-11.3,4.7l-35.4-0.1c-8.8,0-16-7.2-16-16v-35.4c0-4.2,1.7-8.3,4.7-11.3
					l39.4-39.4c1.1-1.1,1.2-2.3,0.9-3.1c-0.3-1-1-1.3-1.6-1.4c-5.7-1.2-11.7-1.8-17.6-1.8c-44.9,0-81.6,36-82.6,80.6l48.4,48.4
					C1991.4-1755.2,1996.2-1755.6,2001-1755.6z"/>
			</g>
			<g>
				<path class="st0" d="M1843.2-1601.9c-11.6,0-21-9.4-21-21s9.4-21,21-21c11.6,0,21,9.4,21,21S1854.8-1601.9,1843.2-1601.9z
					 M1843.2-1631.5c-4.8,0-8.6,3.9-8.6,8.6s3.9,8.6,8.6,8.6s8.6-3.9,8.6-8.6S1848-1631.5,1843.2-1631.5z"/>
			</g>
		</g>
	</g>
	<rect x="1787.7" y="-1916.5" class="st2" width="370" height="370"/>
</g>
<g>
	<g>
		<g>
			<path class="st0" d="M146,268c-73.9,0-134-60.1-134-134C12,60.1,72.1,0,146,0c73.9,0,134,60.1,134,134
				C280,207.9,219.9,268,146,268z M146,19.9C83.1,19.9,31.9,71.1,31.9,134c0,62.9,51.2,114.1,114.1,114.1
				c62.9,0,114.1-51.2,114.1-114.1C260.1,71.1,208.9,19.9,146,19.9z"/>
			<path class="st0" d="M321.4,363l-99.8-115.9c-7.2-8.4-6.3-21,2.1-28.2l1.4-1.2c8.4-7.2,21-6.3,28.2,2.1l99.8,115.9
				c7.2,8.4,6.3,21-2.1,28.2l-1.4,1.2C341.2,372.3,328.6,371.4,321.4,363z"/>
		</g>
		<g>
			<path class="st1" d="M193.4,98.4l-1.6-2.5L177,111.7c2.3,5.4,3.4,11.3,3.3,17.2c0.1,7.1-1.5,14.1-4.8,20.4
				c-3.1,5.5-7.7,10.1-13.2,13.2c-12,6.9-26.7,6.9-38.6,0c-5.5-3.1-10.1-7.7-13.2-13.2c-3.3-6.3-5-13.3-4.9-20.4
				c-0.1-7.1,1.6-14.2,4.9-20.5c3.1-5.5,7.7-10.1,13.2-13.2c5.8-3.5,12.5-5.2,19.3-5c6-0.2,12,1.2,17.3,4l13.2-14.7l-0.9-1.5
				c-9.1-5.1-19.4-7.6-29.8-7.4c-10.5-0.3-20.9,2.3-30,7.4c-8.3,4.9-15,12-19.6,20.5c-5.1,9.3-7.6,19.8-7.4,30.4
				c-0.2,10.5,2.4,20.8,7.4,30c4.9,8.6,11.9,15.7,20.5,20.6c9.2,5.1,19.5,7.7,30,7.4c10.1,0,20-2.5,28.8-7.4
				c8.6-4.8,15.6-12,20.4-20.6c5-9.2,7.5-19.6,7.3-30C200.7,118.3,198.3,107.8,193.4,98.4z M173.3,104.8l14-14.9
				c-2-2.5-4.3-4.8-6.9-6.7l-13.2,14.4C169.6,99.7,171.7,102.1,173.3,104.8z"/>
			<path class="st1" d="M139.2,108.6c2.3-0.7,4.6-0.9,7-0.8c6.6,0.4,13-2.2,17.5-7.1l19.8-21.2c4.7-4.8,6.8-11.4,6-18
				c-0.4-2.5-0.4-5,0-7.4c1.6-7.3,7.2-13.1,14.5-14.9c10.6-3.4,21.9,2.4,25.3,13c3.4,10.6-2.4,21.9-13,25.3
				c-1.1,0.3-2.1,0.6-3.2,0.8c-1.6,0.3-3.3,0.3-4.9,0c-6.6,0.1-12.8,3-17.1,8.1l-20.4,21.2c-4.7,4.9-6.9,11.8-6,18.5
				c0.4,2.3,0.4,4.6,0,6.9c-1.7,7.2-7.2,13-14.4,14.8c-10.7,2.8-21.7-3.6-24.6-14.3c-0.8-2.9-0.9-6-0.3-9
				C126.8,117,132.1,110.9,139.2,108.6z"/>
			<circle class="st1" cx="151.8" cy="41.8" r="14.3"/>
		</g>
	</g>
	<rect class="st2" width="370" height="370"/>
</g>
</svg>
