<svg width="100" height="100" viewBox="0 0 100 100" fill="none" xmlns="http://www.w3.org/2000/svg">
<mask id="mask0_74_12" style="mask-type:alpha" maskUnits="userSpaceOnUse" x="0" y="0" width="100" height="100">
<rect width="100" height="100" fill="#D9D9D9"/>
</mask>
<g mask="url(#mask0_74_12)">
<path d="M48.7575 84.0537C49.3718 84.0537 49.9981 83.9268 50.6365 83.6731C51.2749 83.4193 51.7864 83.0734 52.171 82.6355L85.1117 49.6707C86.1747 48.6076 87.0121 47.4974 87.6237 46.34C88.2353 45.1826 88.5412 43.9184 88.5412 42.5473C88.5412 41.1531 88.2353 39.7989 87.6237 38.4848C87.0121 37.1707 86.1747 35.9822 85.1117 34.9191L69.0058 18.8133C67.9429 17.7503 66.8344 16.953 65.6805 16.4215C64.5267 15.89 63.2527 15.6242 61.8585 15.6242C60.4874 15.6242 59.2098 15.89 58.0256 16.4215C56.8415 16.953 55.7447 17.7503 54.7351 18.8133L50.7768 22.7716L58.8137 30.8325C59.5562 31.5911 60.1812 32.5059 60.6887 33.5769C61.1961 34.648 61.4498 35.7604 61.4498 36.9143C61.4498 38.9656 60.7193 40.7043 59.2584 42.1307C57.7973 43.5569 56.0679 44.27 54.07 44.27C52.8147 44.27 51.7076 44.0898 50.7487 43.7292C49.7898 43.3686 48.9154 42.8145 48.1252 42.067L40.2479 34.1258L21.9546 52.4191C21.5006 52.8731 21.1507 53.4122 20.9049 54.0364C20.6592 54.6606 20.5364 55.2721 20.5364 55.8709C20.5364 57.0152 20.8983 57.9359 21.6221 58.6331C22.3459 59.3301 23.2545 59.6787 24.3478 59.6787C25.0013 59.6787 25.6392 59.5344 26.2615 59.246C26.8838 58.9575 27.3873 58.621 27.7719 58.2364L41.1052 44.9031L43.3969 47.1947L30.0876 60.4239C29.6336 60.9314 29.2837 61.4869 29.0379 62.0906C28.7922 62.6942 28.6694 63.3111 28.6694 63.9415C28.6694 64.9885 29.0487 65.8913 29.8072 66.6498C30.5657 67.4084 31.4685 67.7876 32.5155 67.7876C33.1459 67.7876 33.7722 67.6608 34.3945 67.407C35.0169 67.1533 35.5203 66.8075 35.9049 66.3694L50.1998 52.0745L52.4915 54.3662L38.2206 68.5569C37.8361 68.995 37.5035 69.5274 37.223 70.1541C36.9426 70.7809 36.8024 71.421 36.8024 72.0745C36.8024 73.1215 37.1817 74.0243 37.9402 74.7829C38.6988 75.5414 39.6015 75.9207 40.6486 75.9207C41.2789 75.9207 41.8879 75.7978 42.4754 75.5521C43.0631 75.3064 43.5839 74.9565 44.0379 74.5024L58.3328 60.2075L60.6245 62.4992L46.3296 76.7941C45.8756 77.2481 45.5257 77.8037 45.2799 78.4608C45.0342 79.1178 44.9114 79.7267 44.9114 80.2876C44.9114 81.4201 45.2826 82.3309 46.0251 83.02C46.7677 83.7091 47.6785 84.0537 48.7575 84.0537ZM48.7642 87.2589C46.7352 87.2589 45.0048 86.4883 43.5732 84.9471C42.1416 83.406 41.5193 81.4615 41.7063 79.1135C39.3452 79.2018 37.3793 78.5275 35.8088 77.0906C34.2383 75.6536 33.4931 73.621 33.5732 70.9928C30.9985 71.0195 28.9698 70.297 27.4874 68.8254C26.005 67.3537 25.3306 65.3652 25.4642 62.8598C23.2153 62.9399 21.2976 62.3523 19.7111 61.097C18.1245 59.8417 17.3312 58.0788 17.3312 55.8085C17.3312 54.7882 17.5379 53.7662 17.9515 52.7425C18.365 51.7188 18.9275 50.8391 19.6389 50.1034L40.2479 29.4944L50.0236 39.27C50.5257 39.7722 51.1276 40.1928 51.8291 40.532C52.5307 40.8712 53.2857 41.0409 54.0941 41.0409C55.1571 41.0409 56.1146 40.6282 56.9667 39.8028C57.8187 38.9776 58.2447 38.0014 58.2447 36.8742C58.2447 36.2011 58.0831 35.5508 57.7599 34.9231C57.4367 34.2954 57.024 33.7038 56.5219 33.1483L42.187 18.8133C41.1239 17.7503 40.0021 16.953 38.8216 16.4215C37.641 15.89 36.3536 15.6242 34.9594 15.6242C33.5883 15.6242 32.3375 15.89 31.2068 16.4215C30.0761 16.953 28.9813 17.7453 27.9223 18.7984L14.7271 32.0024C13.648 33.0815 12.8373 34.2794 12.2951 35.5962C11.753 36.9129 11.5006 38.3819 11.5379 40.0032C11.5219 41.1437 11.7155 42.2495 12.1189 43.3206C12.5222 44.3916 13.0337 45.3678 13.6533 46.2492L11.1774 48.645C10.4295 47.5446 9.78178 46.2118 9.23428 44.6466C8.68671 43.0815 8.38623 41.4816 8.33283 39.8469C8.27935 37.8705 8.61189 36.0075 9.33043 34.2581C10.0489 32.5085 11.0839 30.9581 12.4353 29.6066L25.5203 16.5216C26.8878 15.1541 28.363 14.1325 29.946 13.4567C31.5288 12.7809 33.2275 12.4431 35.0421 12.4431C36.8567 12.4431 38.5452 12.7809 40.1077 13.4567C41.6702 14.1325 43.1352 15.1541 44.5027 16.5216L48.4611 20.4799L52.4194 16.5216C53.7869 15.1541 55.2487 14.1325 56.8049 13.4567C58.3611 12.7809 60.0464 12.4431 61.861 12.4431C63.6755 12.4431 65.3775 12.7809 66.9667 13.4567C68.5559 14.1325 70.0342 15.1541 71.4018 16.5216L87.4034 32.5233C88.7709 33.8908 89.8365 35.4544 90.6004 37.2142C91.3643 38.9739 91.7463 40.7527 91.7463 42.5507C91.7463 44.3486 91.3643 46.0289 90.6004 47.5914C89.8365 49.1539 88.7709 50.6189 87.4034 51.9864L54.4626 84.9271C53.6667 85.7765 52.7882 86.3775 51.8271 86.73C50.866 87.0826 49.845 87.2589 48.7642 87.2589Z" fill="white"/>
</g>
</svg>
