<?xml version="1.0" encoding="utf-8"?>
<!-- Generator: Adobe Illustrator 24.0.1, SVG Export Plug-In . SVG Version: 6.00 Build 0)  -->
<svg version="1.1" id="Layer_1" xmlns="http://www.w3.org/2000/svg" xmlns:xlink="http://www.w3.org/1999/xlink" x="0px" y="0px"
	 viewBox="0 0 370 370" style="enable-background:new 0 0 370 370;" xml:space="preserve">
<style type="text/css">
	.st0{fill:#714B67;}
	.st1{fill:#017E84;}
	.st2{fill:none;}
	.st3{fill:none;stroke:#017E84;stroke-miterlimit:10;}
</style>
<g>
	<g>
		<path class="st0" d="M-614.9,16.1c3.9,0,7.1,3.2,7.1,7.1V37v13.1l12.9,2.6c22.2,4.5,42.3,16.6,56.9,34.2
			c14.7,17.8,22.8,40.3,22.8,63.4v13.6c0,37.9,13.9,74.4,39.1,102.9l0,0l0,0l5.4,6c1.9,2.1,2.3,5,1.2,7.6c-1.2,2.6-3.7,4.2-6.5,4.2
			h-277.5c-2.8,0-5.3-1.6-6.4-4.1c-1.2-2.6-0.7-5.6,1.1-7.7l5.3-6l0,0l0,0c25.2-28.4,39.1-65,39.1-102.9v-13.6
			c0-23.1,8.1-45.6,22.8-63.4c14.5-17.6,34.7-29.7,56.9-34.2l12.9-2.6V37V23.1C-622,19.2-618.8,16.1-614.9,16.1 M-614.9,0
			C-627.7,0-638,10.3-638,23.1V37c-52.8,10.7-92.5,57.4-92.5,113.3v13.6c0,34-12.5,66.8-35,92.2l-5.3,6c-6.1,6.8-7.5,16.5-3.8,24.9
			c3.7,8.3,12,13.7,21.1,13.7h277.5c9.1,0,17.3-5.3,21.1-13.7c3.8-8.3,2.2-18.1-3.8-24.9l-5.3-6c-22.5-25.4-35-58.2-35-92.2v-13.6
			c0-55.9-39.7-102.6-92.5-113.3V23.1C-591.8,10.3-602.1,0-614.9,0L-614.9,0z"/>
		<path class="st1" d="M-589.2,339.8c-1.2,1.9-2.6,3.7-4.3,5.3c-5.7,5.7-13.3,8.8-21.4,8.8s-15.7-3.1-21.4-8.8
			c-1.6-1.6-3.1-3.4-4.3-5.3h25.6H-589.2 M-568.6,323.8h-46.3h-46.2c0,12.3,4.8,24.1,13.5,32.7c8.7,8.7,20.5,13.5,32.7,13.5
			s24.1-4.8,32.7-13.5C-573.5,347.8-568.6,336-568.6,323.8L-568.6,323.8z"/>
	</g>
	<rect x="-799.9" y="0" class="st2" width="370" height="370"/>
</g>
<g>
	<g>
		<path class="st0" d="M194.3,262.9h-148c-5.9,0-10.7-5-10.7-11c0-6.1,4.8-11,10.7-11h148c5.9,0,10.7,5,10.7,11
			C204.9,257.9,200.1,262.9,194.3,262.9z M46.3,243.8c-4.3,0-7.8,3.6-7.8,8.1s3.5,8.1,7.8,8.1h148c4.3,0,7.8-3.6,7.8-8.1
			s-3.5-8.1-7.8-8.1H46.3z"/>
	</g>
	<g>
		<path class="st0" d="M323.8,262.9h-92.5c-5.9,0-10.7-5-10.7-11c0-6.1,4.8-11,10.7-11h92.5c5.9,0,10.7,5,10.7,11
			C334.4,257.9,329.6,262.9,323.8,262.9z M231.3,243.8c-4.3,0-7.8,3.6-7.8,8.1s3.5,8.1,7.8,8.1h92.5c4.3,0,7.8-3.6,7.8-8.1
			s-3.5-8.1-7.8-8.1H231.3z"/>
	</g>
	<g>
		<path class="st0" d="M46.3,224.7c-5.9,0-10.7-5-10.7-11c0-6.1,4.8-11,10.7-11s10.7,5,10.7,11C56.9,219.7,52.1,224.7,46.3,224.7z
			 M46.3,205.6c-4.3,0-7.8,3.6-7.8,8.1c0,4.4,3.5,8.1,7.8,8.1s7.8-3.6,7.8-8.1C54.1,209.2,50.6,205.6,46.3,205.6z"/>
	</g>
	<g>
		<path class="st0" d="M83.3,224.7c-5.9,0-10.7-5-10.7-11c0-6.1,4.8-11,10.7-11s10.7,5,10.7,11C93.9,219.7,89.1,224.7,83.3,224.7z
			 M83.3,205.6c-4.3,0-7.8,3.6-7.8,8.1c0,4.4,3.5,8.1,7.8,8.1s7.8-3.6,7.8-8.1C91.1,209.2,87.6,205.6,83.3,205.6z"/>
	</g>
	<g>
		<path class="st0" d="M120.3,224.7c-5.9,0-10.7-5-10.7-11c0-6.1,4.8-11,10.7-11s10.7,5,10.7,11
			C130.9,219.7,126.1,224.7,120.3,224.7z M120.3,205.6c-4.3,0-7.8,3.6-7.8,8.1c0,4.4,3.5,8.1,7.8,8.1s7.8-3.6,7.8-8.1
			C128.1,209.2,124.6,205.6,120.3,205.6z"/>
	</g>
	<g>
		<path class="st0" d="M157.3,224.7c-5.9,0-10.7-5-10.7-11c0-6.1,4.8-11,10.7-11s10.7,5,10.7,11
			C167.9,219.7,163.1,224.7,157.3,224.7z M157.3,205.6c-4.3,0-7.8,3.6-7.8,8.1c0,4.4,3.5,8.1,7.8,8.1s7.8-3.6,7.8-8.1
			C165.1,209.2,161.6,205.6,157.3,205.6z"/>
	</g>
	<g>
		<path class="st0" d="M194.3,224.7c-5.9,0-10.7-5-10.7-11c0-6.1,4.8-11,10.7-11s10.7,5,10.7,11
			C204.9,219.7,200.1,224.7,194.3,224.7z M194.3,205.6c-4.3,0-7.8,3.6-7.8,8.1c0,4.4,3.5,8.1,7.8,8.1s7.8-3.6,7.8-8.1
			C202.1,209.2,198.6,205.6,194.3,205.6z"/>
	</g>
	<path class="st0" d="M333,82.3c14,0,25.4,11.8,25.4,26.3v152.8c0,14.5-11.4,26.3-25.4,26.3H37c-14,0-25.4-11.8-25.4-26.3V108.6
		C11.6,94.1,23,82.3,37,82.3H333 M333,70.4H37c-20.4,0-37,17.1-37,38.2v152.8c0,21.1,16.6,38.2,37,38.2h296c20.4,0,37-17.1,37-38.2
		V108.6C370,87.5,353.4,70.4,333,70.4L333,70.4z"/>
	<g>
		<path class="st0" d="M185,186.5H55.5c-11,0-19.9-9.2-19.9-20.6v-38.2c0-11.4,8.9-20.6,19.9-20.6H185c11,0,19.9,9.2,19.9,20.6v38.2
			C204.9,177.3,196,186.5,185,186.5z M55.5,110.1c-9.4,0-17.1,7.9-17.1,17.6v38.2c0,9.7,7.7,17.6,17.1,17.6H185
			c9.4,0,17.1-7.9,17.1-17.6v-38.2c0-9.7-7.7-17.6-17.1-17.6H55.5z"/>
	</g>
	<g>
		<path class="st1" d="M303,144l-0.9-1.5l-8.6,9.4c1.3,3.3,2,6.8,1.9,10.3c0.1,4.2-0.9,8.4-2.8,12.2c-1.8,3.3-4.5,6-7.7,7.9
			c-6.9,4.1-15.5,4.1-22.4,0c-3.2-1.9-5.9-4.6-7.7-7.9c-1.9-3.8-2.9-8-2.8-12.2c-0.1-4.3,0.9-8.5,2.8-12.3c1.8-3.3,4.5-6.1,7.7-7.9
			c3.4-2.1,7.3-3.1,11.2-3c3.5-0.1,7,0.7,10.1,2.4l7.7-8.8l-0.5-0.9c-5.3-3-11.2-4.6-17.3-4.4c-6.1-0.2-12.1,1.4-17.4,4.4
			c-4.8,3-8.7,7.2-11.4,12.3c-2.9,5.6-4.4,11.9-4.3,18.2c-0.1,6.3,1.4,12.5,4.3,18c2.8,5.2,6.9,9.4,11.9,12.4
			c5.3,3.1,11.3,4.6,17.4,4.4c5.9,0,11.6-1.5,16.7-4.4c5-2.9,9.1-7.2,11.8-12.4c2.9-5.5,4.4-11.7,4.2-18
			C307.2,155.9,305.9,149.6,303,144z M291.4,147.8l8.1-9c-1.2-1.5-2.5-2.9-4-4l-7.7,8.6C289.2,144.7,290.4,146.2,291.4,147.8z"/>
		<path class="st1" d="M271.5,150.1c1.3-0.4,2.7-0.6,4.1-0.5c3.8,0.2,7.6-1.3,10.1-4.3l11.5-12.7c2.7-2.9,4-6.8,3.5-10.8
			c-0.2-1.5-0.2-3,0-4.4c0.9-4.4,4.2-7.9,8.4-9c6.1-2,12.7,1.4,14.7,7.8s-1.4,13.1-7.5,15.2c-0.6,0.2-1.2,0.4-1.9,0.5
			c-0.9,0.2-1.9,0.2-2.8,0c-3.8,0-7.4,1.8-9.9,4.8l-11.8,12.7c-2.7,3-4,7.1-3.5,11.1c0.2,1.4,0.2,2.8,0,4.1c-1,4.3-4.2,7.8-8.4,8.9
			c-6.2,1.7-12.6-2.1-14.3-8.6c-0.4-1.8-0.5-3.6-0.2-5.4C264.3,155.1,267.4,151.5,271.5,150.1z"/>
		<ellipse class="st1" cx="278.8" cy="110.1" rx="8.3" ry="8.6"/>
	</g>
	<rect class="st2" width="370" height="370"/>
</g>
<g>
	<g>
		<g>
			<path class="st1" d="M1042.6,171.9l-0.9-3.3l-21.3,12.3c0.7,6.7,0,13.4-2,19.8c-2.2,7.8-6.2,14.8-11.8,20.6
				c-5.2,5-11.7,8.5-18.7,10.1c-15.3,3.6-31.3-1.2-42-12.6c-5-5.2-8.5-11.7-10.1-18.7c-1.5-7.9-1.1-16.1,1.3-23.8
				c2.2-7.8,6.3-14.9,12-20.7c5.2-5,11.7-8.5,18.7-10.1c7.5-1.9,15.3-1.6,22.7,0.8c6.6,1.8,12.7,5.2,17.6,10l19.2-11.7l-0.5-1.9
				c-8.2-8.5-18.6-14.6-30-17.8c-11.3-3.7-23.5-4.3-35.1-1.7c-10.6,2.7-20.3,8.2-28,15.9c-8.5,8.5-14.7,19.1-18,30.7
				c-3.6,11.4-4.2,23.4-1.7,35.1c2.5,10.9,7.9,21,15.6,29.1c8.3,8.5,18.8,14.7,30.3,17.8c11,3.3,22.6,3.8,33.8,1.3
				c10.9-2.5,20.9-8,28.9-15.8c8.4-8.4,14.5-18.8,17.7-30.3C1044,195.9,1044.8,183.7,1042.6,171.9z M1018.6,172.3l20.1-11.7
				c-1.4-3.4-3.2-6.6-5.3-9.6l-19.1,11.4C1016.2,165.5,1017.7,168.8,1018.6,172.3z"/>
			<path class="st1" d="M980.2,165.4c2.7,0,5.4,0.5,7.9,1.4c7.1,2.6,14.9,1.8,21.3-2.1l28.5-16.6c6.6-3.7,11.2-10.2,12.3-17.6
				c0.4-2.8,1.2-5.5,2.4-8.1c4.1-7.5,12.2-12,20.7-11.5c12.6-0.3,23.1,9.7,23.3,22.3c0.3,12.6-9.7,23.1-22.3,23.3
				c-1.3,0-2.5-0.1-3.8-0.2c-1.8-0.2-3.6-0.8-5.3-1.6c-7.2-2.1-14.9-0.9-21.2,3.2l-29.1,16.4c-6.7,3.8-11.3,10.6-12.5,18.2
				c-0.3,2.6-1.1,5.1-2.2,7.5c-4.2,7.4-12.1,11.8-20.5,11.4c-12.6-0.4-22.5-11-22.1-23.6c0.1-3.4,1-6.8,2.6-9.9
				C964,170.4,971.7,165.5,980.2,165.4z"/>
			<circle class="st1" cx="1015.7" cy="96.7" r="16.2"/>
		</g>
		<path class="st0" d="M1151.1,222.5l-26.1-23.8c0.4-4.6,0.7-9.2,0.7-13.7c0-4.5-0.2-9.1-0.7-13.7l26.1-23.7
			c6.1-5.4,9-13.2,8.4-20.8l0.7-0.7l-2.1-5.6c-3.1-8.4-6.9-16.7-11.4-24.8l-3.4-5.8c-4.7-7.8-10.1-15.4-16-22.6
			c-6.5-7.8-17-10.8-26.9-7.6l-33.6,10.7c-7.5-5.3-15.4-9.9-23.7-13.7l-7.5-34.5c-2.2-10.2-10.2-17.9-20.1-19.5
			c-20.3-3.4-41.7-3.4-61.4,0.1c-10,1.7-17.9,9.3-20.1,19.5l-7.5,34.5c-8.3,3.8-16.3,8.4-23.7,13.7l-33.6-10.7
			c-10-3.2-20.5-0.2-26.9,7.6c-5.9,7.2-11.3,14.7-16,22.6l-3.3,5.7l-0.1,0.2c-4.5,8.1-8.3,16.5-11.4,24.8
			c-3.5,9.5-0.8,20.2,6.9,27.1l26.1,23.8c-0.4,4.6-0.7,9.2-0.7,13.7c0,4.5,0.2,9.1,0.7,13.8L818,222.5c-7.7,6.9-10.4,17.6-6.9,27.2
			c3.1,8.4,6.9,16.7,11.4,24.8l3.3,5.7l0.1,0.1c4.7,7.8,10.1,15.4,16,22.6c6.5,7.8,17,10.8,26.9,7.6l33.5-10.7
			c7.5,5.3,15.4,9.9,23.7,13.7l7.5,34.5c2.2,10.2,10.2,17.9,20.1,19.5c10.1,1.7,20.4,2.5,30.7,2.5c10.3,0,20.6-0.9,30.7-2.5
			c10-1.6,17.9-9.3,20.2-19.5l7.5-34.5c8.3-3.8,16.3-8.4,23.7-13.7l33.6,10.7c10,3.2,20.5,0.2,26.9-7.6c5.9-7.2,11.3-14.7,16-22.6
			l3.3-5.7l0.1-0.2c4.5-8.1,8.3-16.4,11.4-24.8C1161.5,240.1,1158.8,229.4,1151.1,222.5z M1140.3,243.1c-2.8,7.5-6.2,14.9-10.2,22.1
			l-3.1,5.4c-4.2,7-9,13.8-14.3,20.2c-1.5,1.8-4.1,2.5-6.7,1.7l-42.9-13.6l-3.9,3c-8.6,6.6-18.1,12.1-28,16.2l-4.6,1.9l-9.6,44
			c-0.6,2.6-2.5,4.5-4.8,4.9c-18.1,3-37.1,3-55.2,0c-2.3-0.4-4.2-2.3-4.8-4.9l-9.6-44l-4.6-1.9c-10-4.1-19.4-9.5-28-16.2l-3.9-3
			l-42.8,13.7c-2.5,0.8-5.2,0.1-6.7-1.7c-5.3-6.4-10.1-13.2-14.3-20.2l-3.1-5.4c-4-7.2-7.4-14.7-10.2-22.1c-0.8-2.3-0.1-4.9,1.9-6.6
			l33.3-30.3l-0.6-4.9c-0.7-5.5-1.1-11-1.1-16.3c0-5.3,0.4-10.8,1.1-16.2l0.6-4.9l-33.4-30.4c-2-1.8-2.7-4.3-1.8-6.6
			c2.8-7.5,6.2-14.9,10.2-22.1l3.1-5.4c4.2-7,9-13.8,14.3-20.2c1.5-1.8,4.1-2.5,6.7-1.7L906,91.2l3.9-3c8.6-6.6,18.1-12.1,28-16.2
			l4.6-1.9l9.6-44c0.6-2.6,2.5-4.5,4.8-4.9l0.1,0c17.7-3.1,36.9-3.1,55.2-0.1c2.3,0.4,4.2,2.3,4.8,4.9l9.6,44l4.6,1.9
			c10,4.1,19.4,9.5,28,16.2l3.9,3l42.9-13.6c2.5-0.8,5.2-0.1,6.7,1.7c5.3,6.4,10.1,13.2,14.3,20.2l3.1,5.4c3.2,5.8,6,11.7,8.4,17.6
			l1.7,4.6c0.8,2.3,0.1,4.9-1.9,6.6l-33.4,30.3l0.6,4.9c0.7,5.4,1.1,10.9,1.1,16.2c0,5.3-0.4,10.8-1.1,16.2l-0.6,4.9l33.4,30.3l0,0
			C1140.4,238.2,1141.1,240.8,1140.3,243.1z"/>
	</g>
	<rect x="799.9" class="st2" width="370" height="370"/>
</g>
<g>
	<g>
		<path class="st3" d="M1969.7,161.3"/>
		<path class="st1" d="M1654.4,30.1c-5.9-4.6-14.2-4-19.5,1.2l-24.7,24.7c-5.2,5.2-5.8,13.6-1.3,19.5l49.4,64.2
			c2.8,3.6,7.2,5.8,11.7,5.8h33.4l67.2,67.2c-9.1,17.9-6.2,40.3,8.8,55.3l69.1,69.1c7.7,7.7,20.2,7.7,27.9,0l39.5-39.5
			c7.7-7.7,7.7-20.2,0-27.9l-69.1-69.1c-14.9-14.9-37.4-17.9-55.3-8.8l-67.2-67.2V91.2c0-4.6-2.2-8.9-5.8-11.7L1654.4,30.1z"/>
		<g>
			<g>
				<path class="st0" d="M1647.8,349.1c-26.5,0-48.1-21.6-48.1-48.1c0-12.6,5.1-25,14.1-34l96-96l44.9,44.9l-0.9,3.4
					c-3.1,12.2-2.4,24.8,2,36.5l1.4,3.7l-75.5,75.5C1672.8,344,1660.4,349.1,1647.8,349.1z M1709.8,188.5l-87.3,87.3
					c-6.7,6.7-10.5,15.9-10.5,25.3c0,19.7,16,35.7,35.7,35.7c9.4,0,18.6-3.8,25.3-10.5l70-70c-3.7-11.9-4.4-24.4-1.9-36.6
					L1709.8,188.5z M1655.3,314.6c-11.6,0-21-9.4-21-21s9.4-21,21-21c11.6,0,21,9.4,21,21S1666.8,314.6,1655.3,314.6z M1655.3,284.9
					c-4.8,0-8.6,3.9-8.6,8.6c0,4.8,3.9,8.6,8.6,8.6c4.8,0,8.6-3.9,8.6-8.6C1663.9,288.8,1660,284.9,1655.3,284.9z"/>
			</g>
			<g>
				<path class="st0" d="M1869.3,203.8l-12.7-12.7c-15.2-15.2-37.5-21.3-58.3-16.1l-3.4,0.9l-56.9-56.9v-3c0-52.4,42.6-95,95-95
					c6.8,0,13.6,0.7,20.2,2.1c5.3,1.1,9.3,4.9,10.8,10c1.6,5.4,0,11.3-4,15.4l-39.4,39.4c-0.7,0.7-1.1,1.6-1.1,2.6v35.4
					c0,2,1.7,3.7,3.7,3.7l35.4,0.1c1,0,1.9-0.4,2.6-1.1l39.4-39.4c4.1-4.1,10-5.6,15.4-4c5.1,1.5,8.8,5.6,10,10.8l0,0
					c1.4,6.5,2.1,13.3,2.1,20.1c0,18.4-5.3,36.3-15.3,51.6c-9.7,15-23.4,26.9-39.5,34.5L1869.3,203.8z M1813.1,160.8
					c19.3,0,38.3,7.6,52.2,21.5l6.5,6.5c26.8-14.3,43.8-42.5,43.8-73c0-5.9-0.6-11.8-1.8-17.5v0c-0.1-0.5-0.4-1.3-1.4-1.6
					c-0.8-0.2-2.1-0.1-3.1,0.9l-39.4,39.4c-3,3-7.1,4.7-11.3,4.7l-35.4-0.1c-8.8,0-16-7.2-16-16V90.4c0-4.2,1.7-8.3,4.7-11.3
					l39.4-39.4c1.1-1.1,1.2-2.3,0.9-3.1c-0.3-1-1-1.3-1.6-1.4c-5.7-1.2-11.7-1.8-17.6-1.8c-44.9,0-81.6,36-82.6,80.6l48.4,48.4
					C1803.4,161.3,1808.3,160.8,1813.1,160.8z"/>
			</g>
			<g>
				<path class="st0" d="M1655.3,314.6c-11.6,0-21-9.4-21-21s9.4-21,21-21c11.6,0,21,9.4,21,21S1666.8,314.6,1655.3,314.6z
					 M1655.3,284.9c-4.8,0-8.6,3.9-8.6,8.6c0,4.8,3.9,8.6,8.6,8.6c4.8,0,8.6-3.9,8.6-8.6C1663.9,288.8,1660,284.9,1655.3,284.9z"/>
			</g>
		</g>
	</g>
	<rect x="1599.7" class="st2" width="370" height="370"/>
</g>
<g>
	<g>
		<g>
			<path class="st0" d="M-42,2184.4c-73.9,0-134-60.1-134-134c0-73.9,60.1-134,134-134c73.9,0,134,60.1,134,134
				C92,2124.3,31.9,2184.4-42,2184.4z M-42,1936.3c-62.9,0-114.1,51.2-114.1,114.1c0,62.9,51.2,114.1,114.1,114.1
				c62.9,0,114.1-51.2,114.1-114.1C72.1,1987.5,21,1936.3-42,1936.3z"/>
			<path class="st0" d="M133.4,2279.5l-99.8-115.9c-7.2-8.4-6.3-21,2.1-28.2l1.4-1.2c8.4-7.2,21-6.3,28.2,2.1l99.8,115.9
				c7.2,8.4,6.3,21-2.1,28.2l-1.4,1.2C153.3,2288.8,140.6,2287.9,133.4,2279.5z"/>
		</g>
		<g>
			<path class="st1" d="M5.5,2014.9l-1.6-2.5l-14.8,15.7c2.3,5.4,3.4,11.3,3.3,17.2c0.1,7.1-1.5,14.1-4.8,20.4
				c-3.1,5.5-7.7,10.1-13.2,13.2c-12,6.9-26.7,6.9-38.6,0c-5.5-3.1-10.1-7.7-13.2-13.2c-3.3-6.3-5-13.3-4.9-20.4
				c-0.1-7.1,1.6-14.2,4.9-20.5c3.1-5.5,7.7-10.1,13.2-13.2c5.8-3.5,12.5-5.2,19.3-5c6-0.2,12,1.2,17.3,4l13.2-14.7l-0.9-1.5
				c-9.1-5.1-19.4-7.6-29.8-7.4c-10.5-0.3-20.9,2.3-30,7.4c-8.3,4.9-15,12-19.6,20.5c-5.1,9.3-7.6,19.8-7.4,30.4
				c-0.2,10.5,2.4,20.8,7.4,30c4.9,8.6,11.9,15.7,20.5,20.6c9.2,5.1,19.5,7.7,30,7.4c10.1,0,20-2.5,28.8-7.4
				c8.6-4.8,15.6-12,20.4-20.6c5-9.2,7.5-19.6,7.3-30C12.7,2034.8,10.4,2024.3,5.5,2014.9z M-14.6,2021.2l14-14.9
				c-2-2.5-4.3-4.8-6.9-6.7l-13.2,14.4C-18.3,2016.1-16.3,2018.6-14.6,2021.2z"/>
			<path class="st1" d="M-48.7,2025.1c2.3-0.7,4.6-0.9,7-0.8c6.6,0.4,13-2.2,17.5-7.1l19.8-21.2c4.7-4.8,6.8-11.4,6-18
				c-0.4-2.5-0.4-5,0-7.4c1.6-7.3,7.2-13.1,14.5-14.9c10.6-3.4,21.9,2.4,25.3,13c3.4,10.6-2.4,21.9-13,25.3
				c-1.1,0.3-2.1,0.6-3.2,0.8c-1.6,0.3-3.3,0.3-4.9,0c-6.6,0.1-12.8,3-17.1,8.1l-20.4,21.2c-4.7,4.9-6.9,11.8-6,18.5
				c0.4,2.3,0.4,4.6,0,6.9c-1.7,7.2-7.2,13-14.4,14.8c-10.7,2.8-21.7-3.6-24.6-14.3c-0.8-2.9-0.9-6-0.3-9
				C-61.2,2033.4-55.9,2027.3-48.7,2025.1z"/>
			<circle class="st1" cx="-36.2" cy="1958.3" r="14.3"/>
		</g>
	</g>
	<rect x="-188" y="1916.5" class="st2" width="370" height="370"/>
</g>
</svg>
